<svg width="1200" height="760" viewBox="0 0 1200 760" xmlns="http://www.w3.org/2000/svg">
  <defs>
    <linearGradient id="bg" x1="0" y1="0" x2="1200" y2="760" gradientUnits="userSpaceOnUse">
      <stop offset="0" stop-color="#0a1321"/>
      <stop offset="1" stop-color="#13233a"/>
    </linearGradient>
  </defs>

  <rect width="1200" height="760" fill="url(#bg)"/>

  <text x="60" y="74" fill="#f8fafc" font-family="Verdana, Arial, sans-serif" font-size="34" font-weight="700">hypebot-rs architecture overview</text>
  <text x="60" y="110" fill="#94a3b8" font-family="Verdana, Arial, sans-serif" font-size="20">A clearer view of how feed handling, strategy logic, execution, and recovery are separated.</text>

  <rect x="60" y="156" width="1080" height="540" rx="28" fill="#0b1728" stroke="#253750" stroke-width="2"/>

  <rect x="108" y="206" width="220" height="104" rx="18" fill="#0d2238" stroke="#1d4ed8" stroke-width="1.5"/>
  <text x="138" y="246" fill="#e2e8f0" font-family="Verdana, Arial, sans-serif" font-size="24" font-weight="700">HlWsClient</text>
  <text x="138" y="276" fill="#7dd3fc" font-family="Verdana, Arial, sans-serif" font-size="16">subscriptions, heartbeat, reconnect</text>

  <rect x="382" y="206" width="220" height="104" rx="18" fill="#0f243a" stroke="#0ea5e9" stroke-width="1.5"/>
  <text x="420" y="246" fill="#e2e8f0" font-family="Verdana, Arial, sans-serif" font-size="24" font-weight="700">MarketFeed</text>
  <text x="420" y="276" fill="#7dd3fc" font-family="Verdana, Arial, sans-serif" font-size="16">typed events and candle updates</text>

  <rect x="656" y="206" width="236" height="104" rx="18" fill="#12261d" stroke="#16a34a" stroke-width="1.5"/>
  <text x="688" y="246" fill="#e2e8f0" font-family="Verdana, Arial, sans-serif" font-size="24" font-weight="700">SymbolRunner</text>
  <text x="688" y="276" fill="#86efac" font-family="Verdana, Arial, sans-serif" font-size="16">one market, one lifecycle group</text>

  <rect x="946" y="206" width="146" height="104" rx="18" fill="#201533" stroke="#8b5cf6" stroke-width="1.5"/>
  <text x="972" y="246" fill="#e2e8f0" font-family="Verdana, Arial, sans-serif" font-size="24" font-weight="700">Strategy</text>
  <text x="972" y="276" fill="#c4b5fd" font-family="Verdana, Arial, sans-serif" font-size="16">signal logic</text>

  <rect x="232" y="410" width="278" height="116" rx="18" fill="#10281d" stroke="#22c55e" stroke-width="1.5"/>
  <text x="264" y="454" fill="#e2e8f0" font-family="Verdana, Arial, sans-serif" font-size="26" font-weight="700">OrderExecutor</text>
  <text x="264" y="486" fill="#86efac" font-family="Verdana, Arial, sans-serif" font-size="16">serialized exchange calls</text>
  <text x="264" y="510" fill="#86efac" font-family="Verdana, Arial, sans-serif" font-size="16">reduced nonce and race-condition risk</text>

  <rect x="548" y="410" width="226" height="116" rx="18" fill="#2a1f08" stroke="#f59e0b" stroke-width="1.5"/>
  <text x="584" y="454" fill="#e2e8f0" font-family="Verdana, Arial, sans-serif" font-size="26" font-weight="700">State</text>
  <text x="584" y="486" fill="#fcd34d" font-family="Verdana, Arial, sans-serif" font-size="16">restore setup context</text>
  <text x="584" y="510" fill="#fcd34d" font-family="Verdana, Arial, sans-serif" font-size="16">survive restarts more cleanly</text>

  <rect x="812" y="410" width="220" height="116" rx="18" fill="#321414" stroke="#ef4444" stroke-width="1.5"/>
  <text x="844" y="454" fill="#e2e8f0" font-family="Verdana, Arial, sans-serif" font-size="26" font-weight="700">Watchdog</text>
  <text x="844" y="486" fill="#fca5a5" font-family="Verdana, Arial, sans-serif" font-size="16">runtime verification and recovery</text>
  <text x="844" y="510" fill="#fca5a5" font-family="Verdana, Arial, sans-serif" font-size="16">for abnormal feed or HTTP conditions</text>

  <rect x="406" y="574" width="390" height="82" rx="18" fill="#0d2238" stroke="#38bdf8" stroke-width="1.5"/>
  <text x="442" y="608" fill="#e2e8f0" font-family="Verdana, Arial, sans-serif" font-size="24" font-weight="700">Notifications and dry-run support</text>
  <text x="442" y="634" fill="#7dd3fc" font-family="Verdana, Arial, sans-serif" font-size="16">safer testing, clearer runtime visibility, easier operator feedback</text>

  <path d="M328 258H382" stroke="#334155" stroke-width="4"/>
  <path d="M602 258H656" stroke="#334155" stroke-width="4"/>
  <path d="M892 258H946" stroke="#334155" stroke-width="4"/>
  <path d="M774 310V360" stroke="#334155" stroke-width="4"/>
  <path d="M774 360H371V410" stroke="#334155" stroke-width="4"/>
  <path d="M774 360H661V410" stroke="#334155" stroke-width="4"/>
  <path d="M774 360H922V410" stroke="#334155" stroke-width="4"/>
  <path d="M371 526V550H601V574" stroke="#334155" stroke-width="4"/>
  <path d="M661 526V574" stroke="#334155" stroke-width="4"/>
  <path d="M922 526V550H601" stroke="#334155" stroke-width="4"/>
</svg>
